REM DIRINDEX 1\2\5,1\2\6,1\2\7,1\2\8,1\3\9,1\3\10,1\3\11,1\4\12,1\4\13,1\4\14,1\4\15,1\4\16
REM DIRNAME cjc034,folder01,folder02,folder03,folder04,folder05,folder06,folder07,folder08,folder09,folder10,folder11,folder12,folder13,folder14,folder15
TITLE ""
FILE "1200_sec03_1054_1062.mp3" MP3
  TRACK 01 AUDIO
    TITLE "0:"
    INDEX 01 00:00:00
  TRACK 02 AUDIO
    TITLE "12:cjc034_07903"
    INDEX 01 00:00:17
  TRACK 03 AUDIO
    TITLE "0:"
    INDEX 01 00:01:38
  TRACK 04 AUDIO
    TITLE "13:cjc034_07904"
    INDEX 01 00:01:73
  TRACK 05 AUDIO
    TITLE "0:"
    INDEX 01 00:04:21
  TRACK 06 AUDIO
    TITLE "14:cjc034_07905"
    INDEX 01 00:04:54
  TRACK 07 AUDIO
    TITLE "0:"
    INDEX 01 00:06:00
  TRACK 08 AUDIO
    TITLE "15:cjc034_07906"
    INDEX 01 00:06:33
  TRACK 09 AUDIO
    TITLE "0:"
    INDEX 01 00:11:60
  TRACK 10 AUDIO
    TITLE "12:cjc034_07907"
    INDEX 01 00:13:18
  TRACK 11 AUDIO
    TITLE "0:"
    INDEX 01 00:14:15
  TRACK 12 AUDIO
    TITLE "13:cjc034_07908"
    INDEX 01 00:14:47
  TRACK 13 AUDIO
    TITLE "0:"
    INDEX 01 00:16:57
  TRACK 14 AUDIO
    TITLE "14:cjc034_07909"
    INDEX 01 00:17:14
  TRACK 15 AUDIO
    TITLE "0:"
    INDEX 01 00:18:13
  TRACK 16 AUDIO
    TITLE "15:cjc034_07910"
    INDEX 01 00:18:42
  TRACK 17 AUDIO
    TITLE "0:"
    INDEX 01 00:22:25
  TRACK 18 AUDIO
    TITLE "12:cjc034_07911"
    INDEX 01 00:23:59
  TRACK 19 AUDIO
    TITLE "0:"
    INDEX 01 00:24:72
  TRACK 20 AUDIO
    TITLE "13:cjc034_07912"
    INDEX 01 00:25:31
  TRACK 21 AUDIO
    TITLE "0:"
    INDEX 01 00:28:33
  TRACK 22 AUDIO
    TITLE "14:cjc034_07913"
    INDEX 01 00:28:64
  TRACK 23 AUDIO
    TITLE "0:"
    INDEX 01 00:29:74
  TRACK 24 AUDIO
    TITLE "15:cjc034_07914"
    INDEX 01 00:30:36
  TRACK 25 AUDIO
    TITLE "0:"
    INDEX 01 00:33:05
  TRACK 26 AUDIO
    TITLE "12:cjc034_07915"
    INDEX 01 00:34:40
  TRACK 27 AUDIO
    TITLE "0:"
    INDEX 01 00:35:43
  TRACK 28 AUDIO
    TITLE "13:cjc034_07916"
    INDEX 01 00:36:01
  TRACK 29 AUDIO
    TITLE "0:"
    INDEX 01 00:37:20
  TRACK 30 AUDIO
    TITLE "14:cjc034_07917"
    INDEX 01 00:37:52
  TRACK 31 AUDIO
    TITLE "0:"
    INDEX 01 00:38:55
  TRACK 32 AUDIO
    TITLE "15:cjc034_07918"
    INDEX 01 00:39:11
  TRACK 33 AUDIO
    TITLE "0:"
    INDEX 01 00:43:29
  TRACK 34 AUDIO
    TITLE "12:cjc034_07919"
    INDEX 01 00:44:61
  TRACK 35 AUDIO
    TITLE "0:"
    INDEX 01 00:46:11
  TRACK 36 AUDIO
    TITLE "13:cjc034_07920"
    INDEX 01 00:46:45
  TRACK 37 AUDIO
    TITLE "0:"
    INDEX 01 00:47:50
  TRACK 38 AUDIO
    TITLE "14:cjc034_07921"
    INDEX 01 00:48:06
  TRACK 39 AUDIO
    TITLE "0:"
    INDEX 01 00:49:31
  TRACK 40 AUDIO
    TITLE "15:cjc034_07922"
    INDEX 01 00:49:65
  TRACK 41 AUDIO
    TITLE "0:"
    INDEX 01 00:53:60
  TRACK 42 AUDIO
    TITLE "12:cjc034_07923"
    INDEX 01 00:55:20
  TRACK 43 AUDIO
    TITLE "0:"
    INDEX 01 00:56:35
  TRACK 44 AUDIO
    TITLE "13:cjc034_07924"
    INDEX 01 00:56:69
  TRACK 45 AUDIO
    TITLE "0:"
    INDEX 01 00:58:11
  TRACK 46 AUDIO
    TITLE "14:cjc034_07925"
    INDEX 01 00:58:44
  TRACK 47 AUDIO
    TITLE "0:"
    INDEX 01 00:59:57
  TRACK 48 AUDIO
    TITLE "15:cjc034_07926"
    INDEX 01 01:00:15
  TRACK 49 AUDIO
    TITLE "0:"
    INDEX 01 01:05:71
  TRACK 50 AUDIO
    TITLE "12:cjc034_07927"
    INDEX 01 01:07:31
  TRACK 51 AUDIO
    TITLE "0:"
    INDEX 01 01:08:27
  TRACK 52 AUDIO
    TITLE "13:cjc034_07928"
    INDEX 01 01:08:60
  TRACK 53 AUDIO
    TITLE "0:"
    INDEX 01 01:09:73
  TRACK 54 AUDIO
    TITLE "14:cjc034_07929"
    INDEX 01 01:10:31
  TRACK 55 AUDIO
    TITLE "0:"
    INDEX 01 01:11:31
  TRACK 56 AUDIO
    TITLE "15:cjc034_07930"
    INDEX 01 01:11:66
  TRACK 57 AUDIO
    TITLE "0:"
    INDEX 01 01:15:72
  TRACK 58 AUDIO
    TITLE "12:cjc034_07931"
    INDEX 01 01:17:33
  TRACK 59 AUDIO
    TITLE "0:"
    INDEX 01 01:18:49
  TRACK 60 AUDIO
    TITLE "13:cjc034_07932"
    INDEX 01 01:19:07
  TRACK 61 AUDIO
    TITLE "0:"
    INDEX 01 01:20:28
  TRACK 62 AUDIO
    TITLE "14:cjc034_07933"
    INDEX 01 01:20:61
  TRACK 63 AUDIO
    TITLE "0:"
    INDEX 01 01:22:05
  TRACK 64 AUDIO
    TITLE "15:cjc034_07934"
    INDEX 01 01:22:39
  TRACK 65 AUDIO
    TITLE "0:"
    INDEX 01 01:27:06
  TRACK 66 AUDIO
    TITLE "12:cjc034_07935"
    INDEX 01 01:28:41
  TRACK 67 AUDIO
    TITLE "0:"
    INDEX 01 01:29:66
  TRACK 68 AUDIO
    TITLE "13:cjc034_07936"
    INDEX 01 01:30:24
  TRACK 69 AUDIO
    TITLE "0:"
    INDEX 01 01:34:28
  TRACK 70 AUDIO
    TITLE "14:cjc034_07937"
    INDEX 01 01:34:63
  TRACK 71 AUDIO
    TITLE "0:"
    INDEX 01 01:36:15
  TRACK 72 AUDIO
    TITLE "15:cjc034_07938"
    INDEX 01 01:36:47
  TRACK 73 AUDIO
    TITLE "0:"
    INDEX 01 01:40:72
